<svg width="66" height="54" viewBox="0 0 66 54" fill="none" xmlns="http://www.w3.org/2000/svg">
<g clip-path="url(#clip0_377_2489)">
<path d="M7.28075 7.05706C7.15623 3.38559 9.94228 0 13.7081 0H52.2966C56.0625 0 58.8485 3.38559 58.724 7.05706C58.6044 10.5839 58.7597 15.1524 59.8795 18.8775C61.0029 22.6141 62.8974 24.9759 66 25.2794V28.7206C62.8974 29.0241 61.0029 31.3859 59.8795 35.1225C58.7597 38.8476 58.6044 43.4161 58.724 46.9431C58.8485 50.6144 56.0625 54 52.2966 54H13.7081C9.94228 54 7.15623 50.6144 7.28088 46.9431C7.40038 43.4161 7.24505 38.8476 6.12511 35.1225C5.00182 31.3859 3.10277 29.0241 0 28.7206V25.2794C3.10264 24.9759 5.00182 22.6141 6.12511 18.8775C7.24505 15.1524 7.40038 10.5839 7.28075 7.05706Z" fill="url(#paint0_linear_377_2489)"/>
<g filter="url(#filter0_d_377_2489)">
<path d="M34.4313 41.3546C40.5282 41.3546 44.2021 38.2896 44.2021 33.2341C44.2021 29.4126 41.5807 26.6461 37.6883 26.2081V26.0489C40.548 25.5712 42.7922 22.8445 42.7922 19.7993C42.7922 15.4604 39.4558 12.634 34.3718 12.634H22.9326V41.3546H34.4313ZM27.3812 16.2764H33.2994C36.5166 16.2764 38.3436 17.7492 38.3436 20.4162C38.3436 23.2625 36.2187 24.8547 32.366 24.8547H27.3812V16.2764ZM27.3812 37.7124V28.2583H33.2596C37.4698 28.2583 39.6543 29.8505 39.6543 32.9555C39.6543 36.0603 37.5294 37.7124 33.5177 37.7124H27.3812Z" fill="url(#paint1_linear_377_2489)"/>
<path d="M34.4313 41.3546C40.5282 41.3546 44.2021 38.2896 44.2021 33.2341C44.2021 29.4126 41.5807 26.6461 37.6883 26.2081V26.0489C40.548 25.5712 42.7922 22.8445 42.7922 19.7993C42.7922 15.4604 39.4558 12.634 34.3718 12.634H22.9326V41.3546H34.4313ZM27.3812 16.2764H33.2994C36.5166 16.2764 38.3436 17.7492 38.3436 20.4162C38.3436 23.2625 36.2187 24.8547 32.366 24.8547H27.3812V16.2764ZM27.3812 37.7124V28.2583H33.2596C37.4698 28.2583 39.6543 29.8505 39.6543 32.9555C39.6543 36.0603 37.5294 37.7124 33.5177 37.7124H27.3812Z" stroke="white"/>
</g>
</g>
<defs>
<filter id="filter0_d_377_2489" x="6.43262" y="0.134003" width="54.2695" height="61.7206" filterUnits="userSpaceOnUse" color-interpolation-filters="sRGB">
<feFlood flood-opacity="0" result="BackgroundImageFix"/>
<feColorMatrix in="SourceAlpha" type="matrix" values="0 0 0 0 0 0 0 0 0 0 0 0 0 0 0 0 0 0 127 0" result="hardAlpha"/>
<feOffset dy="4"/>
<feGaussianBlur stdDeviation="8"/>
<feColorMatrix type="matrix" values="0 0 0 0 0 0 0 0 0 0 0 0 0 0 0 0 0 0 0.15 0"/>
<feBlend mode="normal" in2="BackgroundImageFix" result="effect1_dropShadow_377_2489"/>
<feBlend mode="normal" in="SourceGraphic" in2="effect1_dropShadow_377_2489" result="shape"/>
</filter>
<linearGradient id="paint0_linear_377_2489" x1="9.80706" y1="1.42915" x2="68.6491" y2="46.9216" gradientUnits="userSpaceOnUse">
<stop stop-color="#9013FE"/>
<stop offset="1" stop-color="#6610F2"/>
</linearGradient>
<linearGradient id="paint1_linear_377_2489" x1="24.9445" y1="14.5244" x2="38.3463" y2="36.5996" gradientUnits="userSpaceOnUse">
<stop stop-color="white"/>
<stop offset="1" stop-color="#F1E5FC"/>
</linearGradient>
<clipPath id="clip0_377_2489">
<rect width="66" height="54" fill="white"/>
</clipPath>
</defs>
</svg>
